<!DOCTYPE svg PUBLIC "-//W3C//DTD SVG 1.1//EN" "http://www.w3.org/Graphics/SVG/1.1/DTD/svg11.dtd">
<!-- Uploaded to: SVG Repo, www.svgrepo.com, Transformed by: SVG Repo Mixer Tools -->
<svg height="800px" width="800px" version="1.1" id="Layer_1" xmlns="http://www.w3.org/2000/svg" xmlns:xlink="http://www.w3.org/1999/xlink" viewBox="0 0 512.002 512.002" xml:space="preserve" fill="#000000">
<g id="SVGRepo_bgCarrier" stroke-width="0"/>
<g id="SVGRepo_tracerCarrier" stroke-linecap="round" stroke-linejoin="round"/>
<g id="SVGRepo_iconCarrier"> <path style="fill:#CFF09E;" d="M143.285,309.118l15.038,187.854h60.104v-62.121h62.121v62.121h133.246l15.038-187.854H143.285z M329.896,418.672l-43.926-43.928l43.926-43.926l43.926,43.926L329.896,418.672z"/> <path style="fill:#507C5C;" d="M454.917,111.07c-2.845-3.083-6.849-4.835-11.044-4.835H301.089V15.029 C301.089,6.73,294.361,0,286.06,0s-15.029,6.73-15.029,15.029v279.06h-113.87l-13.932-174.022 c-0.661-8.274-7.89-14.451-16.181-13.782c-8.274,0.661-14.445,7.907-13.782,16.181l3.392,42.371 c-19.263-5.128-33.499-22.715-33.499-43.57c0-24.862,20.227-45.088,45.088-45.088s45.088,20.227,45.088,45.088 c0,8.299,6.729,15.029,15.029,15.029c8.301,0,15.029-6.73,15.029-15.029c0-41.436-33.711-75.147-75.147-75.147 S53.1,79.83,53.1,121.266c0,38.352,28.885,70.064,66.039,74.576l24.203,302.33c0.625,7.811,7.146,13.83,14.981,13.83h60.104h62.121 h133.246c7.835,0,14.356-6.019,14.981-13.83l15.038-187.852v-0.008l15.038-187.845C459.19,118.283,457.762,114.153,454.917,111.07z M427.592,136.295L414.96,294.089h-113.87V136.295H427.592z M265.519,481.941h-32.062v-32.062h32.062L265.519,481.941 L265.519,481.941z M295.578,481.941V434.85c0-8.299-6.729-15.029-15.029-15.029h-62.121c-8.301,0-15.029,6.73-15.029,15.029v47.092 h-31.2l-12.632-157.793h155.745l-39.969,39.969c-2.818,2.818-4.402,6.641-4.402,10.627s1.584,7.808,4.402,10.627l43.926,43.928 c2.818,2.818,6.642,4.402,10.627,4.402s7.809-1.584,10.627-4.402l43.926-43.928c2.818-2.82,4.402-6.642,4.402-10.627 s-1.584-7.809-4.402-10.627l-39.969-39.969h68.074l-12.632,157.793H295.578z M329.895,352.072l22.672,22.672l-22.672,22.672 l-22.672-22.672L329.895,352.072z"/> </g>
</svg>